<svg width="165" height="50" viewBox="0 0 165 50" fill="none" xmlns="http://www.w3.org/2000/svg">
<path d="M8.40997 45.3399H5.69997L4.99997 46.8799H3.96997L7.09997 40.1499L10.12 46.8799H9.07997L8.40997 45.3399ZM8.01997 44.4399L7.07997 42.2899L6.09997 44.4399H8.01997Z" fill="#717375"/>
<path d="M10.6899 46.8801L12.0199 40.0701L14.1899 44.9901L16.4399 40.0701L17.6399 46.8801H16.6599L16.0499 43.0601L14.1799 47.1701L12.3599 43.0501L11.6799 46.8801H10.6899Z" fill="#717375"/>
<path d="M20.7299 41.44V46.87H19.7699V41.44H18.3099V40.54H22.1699V41.44H20.7299Z" fill="#717375"/>
<path d="M25.8099 39.95H26.7399V46.88H25.8099V46.4599C25.4499 46.8199 25.0299 46.99 24.5799 46.99C24.0299 46.99 23.5799 46.7899 23.2199 46.3899C22.8599 45.9799 22.6799 45.47 22.6799 44.86C22.6799 44.26 22.8599 43.7699 23.2199 43.3699C23.5799 42.9699 24.0199 42.77 24.5599 42.77C25.0299 42.77 25.4499 42.96 25.8199 43.34V39.95H25.8099ZM23.6199 44.8699C23.6199 45.2499 23.7199 45.5599 23.9299 45.7999C24.1399 46.0399 24.4099 46.1699 24.7299 46.1699C25.0699 46.1699 25.3499 46.05 25.5599 45.82C25.7699 45.58 25.8799 45.2699 25.8799 44.8899C25.8799 44.5099 25.7699 44.2099 25.5599 43.9599C25.3499 43.7199 25.0799 43.5999 24.7399 43.5999C24.4199 43.5999 24.1599 43.7199 23.9399 43.9599C23.7199 44.2099 23.6199 44.5099 23.6199 44.8699Z" fill="#717375"/>
<path d="M27.76 41.2199C27.76 41.0599 27.82 40.9199 27.94 40.7999C28.06 40.6799 28.2 40.6199 28.36 40.6199C28.53 40.6199 28.67 40.6799 28.79 40.7999C28.91 40.9099 28.97 41.0599 28.97 41.2199C28.97 41.3799 28.91 41.5299 28.79 41.6499C28.68 41.7699 28.53 41.8299 28.37 41.8299C28.21 41.8299 28.06 41.7699 27.94 41.6499C27.82 41.5299 27.76 41.3899 27.76 41.2199ZM28.82 42.8799V46.8699H27.9V42.8799H28.82Z" fill="#717375"/>
<path d="M29.99 42.88H30.91V43.24C31.08 43.06 31.23 42.94 31.36 42.87C31.49 42.8 31.65 42.77 31.84 42.77C32.08 42.77 32.34 42.85 32.6 43.01L32.18 43.85C32.01 43.72 31.83 43.66 31.67 43.66C31.17 43.66 30.92 44.04 30.92 44.8V46.87H30V42.88H29.99Z" fill="#717375"/>
<path d="M36.71 45.1H33.85C33.88 45.43 33.98 45.6901 34.17 45.8801C34.36 46.0701 34.6 46.17 34.9 46.17C35.13 46.17 35.32 46.12 35.47 46.01C35.62 45.9 35.79 45.7001 35.97 45.4001L36.75 45.84C36.63 46.04 36.5 46.22 36.37 46.37C36.24 46.52 36.09 46.64 35.94 46.73C35.79 46.82 35.62 46.89 35.44 46.94C35.26 46.98 35.07 47.01 34.86 47.01C34.26 47.01 33.79 46.82 33.42 46.44C33.06 46.05 32.88 45.54 32.88 44.91C32.88 44.28 33.06 43.7701 33.4 43.3801C33.75 42.9901 34.22 42.8 34.8 42.8C35.39 42.8 35.85 42.9901 36.19 43.3601C36.53 43.7301 36.7 44.25 36.7 44.91L36.71 45.1ZM35.76 44.34C35.63 43.85 35.32 43.6 34.83 43.6C34.72 43.6 34.61 43.6201 34.51 43.6501C34.41 43.6801 34.32 43.73 34.24 43.8C34.16 43.86 34.09 43.94 34.03 44.03C33.97 44.12 33.93 44.22 33.9 44.34H35.76Z" fill="#717375"/>
<path d="M40.8299 43.05V44.28C40.6199 44.02 40.4299 43.85 40.2599 43.75C40.0999 43.65 39.8999 43.6 39.6799 43.6C39.3299 43.6 39.0399 43.72 38.8099 43.97C38.5799 44.22 38.4699 44.52 38.4699 44.88C38.4699 45.25 38.5799 45.56 38.7999 45.8C39.0199 46.04 39.3099 46.16 39.6599 46.16C39.8799 46.16 40.0799 46.11 40.2499 46.02C40.4099 45.93 40.6099 45.75 40.8299 45.48V46.7C40.4599 46.89 40.0799 46.99 39.7099 46.99C39.0899 46.99 38.5799 46.79 38.1599 46.39C37.7399 45.99 37.5399 45.49 37.5399 44.89C37.5399 44.29 37.7499 43.79 38.1699 43.38C38.5899 42.97 39.1099 42.76 39.7199 42.76C40.1099 42.77 40.4799 42.87 40.8299 43.05Z" fill="#717375"/>
<path d="M42.67 43.7399V46.8699H41.75V43.7399H41.36V42.8799H41.75V41.4199H42.67V42.8799H43.39V43.7399H42.67Z" fill="#717375"/>
<path d="M50.37 41.49L49.6 41.95C49.45 41.7 49.32 41.53 49.19 41.46C49.05 41.37 48.88 41.33 48.66 41.33C48.39 41.33 48.17 41.41 48 41.56C47.83 41.71 47.74 41.89 47.74 42.12C47.74 42.43 47.97 42.68 48.43 42.87L49.06 43.13C49.57 43.34 49.95 43.59 50.19 43.89C50.43 44.19 50.55 44.56 50.55 44.99C50.55 45.57 50.36 46.05 49.97 46.43C49.58 46.81 49.09 47 48.51 47C47.96 47 47.51 46.84 47.15 46.51C46.8 46.18 46.58 45.73 46.49 45.14L47.46 44.93C47.5 45.3 47.58 45.56 47.69 45.7C47.89 45.97 48.17 46.11 48.55 46.11C48.85 46.11 49.1 46.01 49.29 45.81C49.49 45.61 49.59 45.36 49.59 45.05C49.59 44.93 49.57 44.81 49.54 44.71C49.51 44.61 49.45 44.51 49.38 44.43C49.31 44.34 49.21 44.26 49.1 44.19C48.99 44.11 48.85 44.04 48.69 43.98L48.08 43.73C47.21 43.36 46.78 42.83 46.78 42.12C46.78 41.64 46.96 41.25 47.32 40.93C47.68 40.61 48.14 40.45 48.68 40.45C49.39 40.42 49.96 40.78 50.37 41.49Z" fill="#717375"/>
<path d="M51.3199 44.85C51.3199 44.27 51.5299 43.78 51.9399 43.38C52.3499 42.98 52.8599 42.77 53.4499 42.77C54.0499 42.77 54.5499 42.97 54.9699 43.38C55.3799 43.79 55.5799 44.29 55.5799 44.88C55.5799 45.48 55.3699 45.98 54.9599 46.39C54.5399 46.79 54.0299 46.99 53.4299 46.99C52.8299 46.99 52.3299 46.78 51.9299 46.37C51.5199 45.97 51.3199 45.46 51.3199 44.85ZM52.2599 44.87C52.2599 45.27 52.3699 45.58 52.5799 45.82C52.7999 46.05 53.0899 46.17 53.4499 46.17C53.8099 46.17 54.0999 46.05 54.3199 45.82C54.5399 45.59 54.6399 45.28 54.6399 44.89C54.6399 44.5 54.5299 44.19 54.3199 43.96C54.0999 43.72 53.8099 43.61 53.4499 43.61C53.0999 43.61 52.8099 43.73 52.5899 43.96C52.3699 44.19 52.2599 44.49 52.2599 44.87Z" fill="#717375"/>
<path d="M57.4799 39.95V46.88H56.5599V39.95H57.4799Z" fill="#717375"/>
<path d="M59.5699 42.8799V45.1699C59.5699 45.8299 59.8299 46.1599 60.3499 46.1599C60.8699 46.1599 61.1299 45.8299 61.1299 45.1699V42.8799H62.0499V45.1899C62.0499 45.5099 62.0099 45.7899 61.9299 46.0199C61.8499 46.2299 61.7199 46.4099 61.5299 46.5799C61.2199 46.8499 60.8199 46.9899 60.3399 46.9899C59.8599 46.9899 59.4699 46.8499 59.1499 46.5799C58.9599 46.4099 58.8199 46.2299 58.7399 46.0199C58.6599 45.8299 58.6299 45.5599 58.6299 45.1899V42.8799H59.5699Z" fill="#717375"/>
<path d="M64.17 43.7399V46.8699H63.25V43.7399H62.86V42.8799H63.25V41.4199H64.17V42.8799H64.89V43.7399H64.17Z" fill="#717375"/>
<path d="M65.3799 41.2199C65.3799 41.0599 65.4399 40.9199 65.5599 40.7999C65.6799 40.6799 65.8199 40.6199 65.9799 40.6199C66.1499 40.6199 66.29 40.6799 66.41 40.7999C66.53 40.9099 66.5899 41.0599 66.5899 41.2199C66.5899 41.3799 66.53 41.5299 66.41 41.6499C66.3 41.7699 66.1499 41.8299 65.9899 41.8299C65.8199 41.8299 65.6799 41.7699 65.5599 41.6499C65.4399 41.5299 65.3799 41.3899 65.3799 41.2199ZM66.4399 42.8799V46.8699H65.5199V42.8799H66.4399Z" fill="#717375"/>
<path d="M67.42 44.85C67.42 44.27 67.63 43.78 68.04 43.38C68.45 42.98 68.96 42.77 69.55 42.77C70.15 42.77 70.65 42.97 71.07 43.38C71.48 43.79 71.68 44.29 71.68 44.88C71.68 45.48 71.47 45.98 71.06 46.39C70.64 46.79 70.13 46.99 69.53 46.99C68.93 46.99 68.43 46.78 68.03 46.37C67.62 45.97 67.42 45.46 67.42 44.85ZM68.37 44.87C68.37 45.27 68.48 45.58 68.69 45.82C68.91 46.05 69.2 46.17 69.56 46.17C69.92 46.17 70.21 46.05 70.43 45.82C70.65 45.59 70.75 45.28 70.75 44.89C70.75 44.5 70.64 44.19 70.43 43.96C70.21 43.72 69.92 43.61 69.56 43.61C69.21 43.61 68.92 43.73 68.7 43.96C68.47 44.19 68.37 44.49 68.37 44.87Z" fill="#717375"/>
<path d="M72.66 42.88H73.59V43.25C73.91 42.93 74.28 42.77 74.68 42.77C75.14 42.77 75.51 42.92 75.77 43.21C75.99 43.46 76.11 43.87 76.11 44.43V46.88H75.18V44.65C75.18 44.26 75.13 43.98 75.02 43.83C74.91 43.68 74.72 43.6 74.44 43.6C74.13 43.6 73.92 43.7 73.79 43.9C73.66 44.1 73.6 44.45 73.6 44.95V46.88H72.67V42.88H72.66Z" fill="#717375"/>
<path d="M143.71 1.53003C141.35 1.53003 139.18 1.95003 137.12 2.81003V5.00003C139.14 4.03003 141.32 3.54003 143.71 3.54003C152.24 3.54003 159.18 10.48 159.18 19.01C159.18 23.84 156.95 28.16 153.4 31.05L154.39 32.82C158.54 29.57 161.18 24.6 161.18 19.01C161.18 9.37003 153.35 1.53003 143.71 1.53003Z" fill="#55575A"/>
<path d="M137.12 7.40015V9.69015L152.19 13.7801V34.2801L154.41 32.8001V12.0801L137.12 7.40015Z" fill="#55575A"/>
<path d="M133.29 10.45V12.74L148.36 16.84V35.97C149.12 35.75 149.86 35.49 150.58 35.18V15.13L133.29 10.45Z" fill="#55575A"/>
<path d="M129 13.6201V23.1301L131.22 23.7301V16.5101L144.06 19.9901V36.6101C144.81 36.5901 145.55 36.5201 146.28 36.4101V18.3101L129 13.6201Z" fill="#55575A"/>
<path d="M139.13 21.9099L130.41 33.2099L126.7 28.1599L125.36 29.8899L130.39 36.6999L141.8 21.9199L139.13 21.9099Z" fill="#55575A"/>
<path d="M7.05997 18.1499V33.5899H12.35V36.1399H4.33997V18.1399H7.05997V18.1499Z" fill="#55575A"/>
<path d="M24.76 31.09H16.62C16.69 32.02 16.99 32.76 17.53 33.32C18.07 33.86 18.75 34.14 19.59 34.14C20.24 34.14 20.78 33.98 21.21 33.67C21.63 33.36 22.11 32.78 22.64 31.95L24.85 33.19C24.51 33.77 24.15 34.27 23.77 34.69C23.39 35.11 22.98 35.45 22.55 35.72C22.11 35.99 21.65 36.18 21.14 36.31C20.63 36.43 20.09 36.5 19.5 36.5C17.81 36.5 16.45 35.96 15.42 34.87C14.39 33.77 13.88 32.32 13.88 30.51C13.88 28.72 14.38 27.26 15.37 26.15C16.37 25.05 17.7 24.51 19.36 24.51C21.03 24.51 22.35 25.04 23.32 26.11C24.28 27.17 24.77 28.63 24.77 30.5L24.76 31.09ZM22.07 28.94C21.7 27.54 20.82 26.84 19.42 26.84C19.1 26.84 18.8 26.89 18.52 26.99C18.24 27.09 17.99 27.23 17.76 27.41C17.53 27.59 17.33 27.81 17.17 28.07C17.01 28.33 16.88 28.62 16.8 28.94H22.07Z" fill="#55575A"/>
<path d="M36 24.79H38.63V36.14H36V34.95C34.92 35.96 33.76 36.47 32.51 36.47C30.94 36.47 29.64 35.9 28.62 34.77C27.6 33.61 27.09 32.17 27.09 30.43C27.09 28.73 27.6 27.31 28.62 26.18C29.64 25.05 30.91 24.48 32.44 24.48C33.76 24.48 34.95 25.02 36 26.11V24.79ZM29.77 30.43C29.77 31.52 30.06 32.4 30.64 33.09C31.24 33.78 31.99 34.13 32.9 34.13C33.87 34.13 34.66 33.8 35.25 33.13C35.85 32.44 36.15 31.56 36.15 30.5C36.15 29.44 35.85 28.56 35.25 27.87C34.65 27.19 33.87 26.86 32.92 26.86C32.02 26.86 31.27 27.2 30.66 27.89C30.07 28.56 29.77 29.42 29.77 30.43Z" fill="#55575A"/>
<path d="M48.5399 26.7299L46.3699 27.8799C46.0299 27.1799 45.5999 26.83 45.0999 26.83C44.8599 26.83 44.6499 26.91 44.4799 27.07C44.3099 27.23 44.2199 27.43 44.2199 27.68C44.2199 28.12 44.7299 28.5499 45.7399 28.9699C47.1299 29.5699 48.0699 30.12 48.5499 30.62C49.0299 31.13 49.2699 31.8 49.2699 32.66C49.2699 33.76 48.8699 34.67 48.0599 35.41C47.2799 36.11 46.3299 36.4599 45.2199 36.4599C43.3199 36.4599 41.9699 35.5299 41.1799 33.6699L43.4199 32.63C43.7299 33.17 43.9699 33.5199 44.1299 33.6699C44.4499 33.9699 44.8299 34.11 45.2699 34.11C46.1599 34.11 46.5999 33.71 46.5999 32.9C46.5999 32.43 46.2599 32 45.5699 31.59C45.3099 31.46 45.0399 31.33 44.7799 31.2C44.5199 31.08 44.2499 30.95 43.9799 30.82C43.2199 30.45 42.6799 30.07 42.3699 29.7C41.9699 29.23 41.7799 28.62 41.7799 27.87C41.7799 26.88 42.1199 26.07 42.7899 25.42C43.4799 24.78 44.3199 24.45 45.3099 24.45C46.7499 24.48 47.8299 25.2299 48.5399 26.7299Z" fill="#55575A"/>
<path d="M61.96 31.09H53.82C53.89 32.02 54.19 32.76 54.73 33.32C55.27 33.86 55.95 34.14 56.79 34.14C57.44 34.14 57.98 33.98 58.41 33.67C58.83 33.36 59.31 32.78 59.84 31.95L62.05 33.19C61.71 33.77 61.35 34.27 60.97 34.69C60.59 35.11 60.18 35.45 59.75 35.72C59.31 35.99 58.85 36.18 58.34 36.31C57.83 36.43 57.29 36.5 56.7 36.5C55.01 36.5 53.65 35.96 52.62 34.87C51.59 33.77 51.08 32.32 51.08 30.51C51.08 28.72 51.58 27.26 52.57 26.15C53.57 25.05 54.9 24.51 56.56 24.51C58.23 24.51 59.55 25.04 60.52 26.11C61.48 27.17 61.97 28.63 61.97 30.5L61.96 31.09ZM59.27 28.94C58.9 27.54 58.02 26.84 56.62 26.84C56.3 26.84 56 26.89 55.72 26.99C55.44 27.09 55.19 27.23 54.96 27.41C54.73 27.59 54.53 27.81 54.37 28.07C54.21 28.33 54.08 28.62 54 28.94H59.27Z" fill="#55575A"/>
<path d="M69.0999 26.7399L64.1499 18.1499H67.2399L70.6799 24.2499L74.2899 18.1499H77.3999L72.2099 26.7399L77.6499 36.1499H74.6099L70.6199 29.2599L66.5199 36.1499H63.4399L69.0999 26.7399Z" fill="#55575A"/>
<path d="M82.2 42.32H79.58V24.79H82.2V26.03C83.23 25 84.41 24.48 85.72 24.48C87.28 24.48 88.57 25.05 89.58 26.2C90.61 27.34 91.12 28.78 91.12 30.52C91.12 32.22 90.61 33.64 89.59 34.77C88.58 35.9 87.31 36.46 85.77 36.46C84.44 36.46 83.25 35.93 82.2 34.86V42.32ZM88.43 30.54C88.43 29.45 88.13 28.57 87.54 27.88C86.94 27.19 86.19 26.84 85.28 26.84C84.32 26.84 83.54 27.17 82.94 27.84C82.34 28.51 82.04 29.39 82.04 30.47C82.04 31.53 82.34 32.41 82.94 33.1C83.53 33.78 84.31 34.11 85.27 34.11C86.18 34.11 86.93 33.77 87.52 33.08C88.13 32.42 88.43 31.56 88.43 30.54Z" fill="#55575A"/>
<path d="M104.23 31.09H96.09C96.16 32.02 96.46 32.76 97 33.32C97.54 33.86 98.22 34.14 99.06 34.14C99.71 34.14 100.25 33.98 100.68 33.67C101.1 33.36 101.58 32.78 102.11 31.95L104.32 33.19C103.98 33.77 103.62 34.27 103.24 34.69C102.86 35.11 102.45 35.45 102.02 35.72C101.58 35.99 101.11 36.18 100.61 36.31C100.1 36.43 99.56 36.5 98.97 36.5C97.28 36.5 95.92 35.96 94.89 34.87C93.86 33.77 93.35 32.32 93.35 30.51C93.35 28.72 93.85 27.26 94.84 26.15C95.84 25.05 97.17 24.51 98.83 24.51C100.5 24.51 101.82 25.04 102.79 26.11C103.75 27.17 104.24 28.63 104.24 30.5L104.23 31.09ZM101.53 28.94C101.16 27.54 100.28 26.84 98.88 26.84C98.56 26.84 98.26 26.89 97.98 26.99C97.7 27.09 97.45 27.23 97.22 27.41C96.99 27.59 96.79 27.81 96.63 28.07C96.47 28.33 96.34 28.62 96.26 28.94H101.53Z" fill="#55575A"/>
<path d="M107.09 24.79H109.71V25.8C110.19 25.29 110.62 24.95 110.99 24.76C111.37 24.57 111.82 24.47 112.34 24.47C113.03 24.47 113.75 24.7 114.51 25.15L113.31 27.55C112.81 27.19 112.33 27.01 111.85 27.01C110.42 27.01 109.71 28.09 109.71 30.25V36.14H107.09V24.79Z" fill="#55575A"/>
<path d="M119.59 27.2399V36.1399H116.97V27.2399H115.85V24.7899H116.97V20.6299H119.59V24.7899H121.63V27.2399H119.59Z" fill="#55575A"/>
</svg>
