<svg width="352" height="329" viewBox="0 0 352 329" fill="none" xmlns="http://www.w3.org/2000/svg">
<g opacity="0.1">
<path fill-rule="evenodd" clip-rule="evenodd" d="M124.472 12.8303C145.143 4.27678 167.061 0 190.851 0C287.88 0 366.912 79.0313 367.001 175.972C367.001 232.243 340.398 282.285 298.662 315.075V315.144L276.209 330.113V123.491L124.383 82.1488V59.1611L298.662 106.384V288.377C328.425 259.638 346.775 219.944 346.775 175.972C346.775 89.9906 276.832 20.0474 190.851 20.0474C166.794 20.0474 144.876 25.037 124.472 34.8379V12.8303Z" fill="white"/>
<path d="M85.7092 89.9021V112.89L237.535 154.232V347.044C245.198 344.905 252.682 342.232 259.899 339.025V137.125L85.7092 89.9021Z" fill="white"/>
<path d="M42.3933 122.12V217.787L64.7863 223.833V151.282L194.416 186.313V353.463C201.999 353.196 209.493 352.574 216.809 351.418V169.242L42.3933 122.12Z" fill="white"/>
<path d="M144.608 205.375L56.7555 319.244L19.3337 268.368L5.79053 285.832L56.4882 354.438L171.516 205.553L144.608 205.375Z" fill="white"/>
</g>
</svg>
