<svg width="173" height="53" viewBox="0 0 173 53" fill="none" xmlns="http://www.w3.org/2000/svg">
<path d="M7.07265 48.9673H4.14914L3.39399 50.6305H2.28284L5.65944 43.3621L8.91738 50.6305H7.79544L7.07265 48.9673ZM6.65193 47.9953L5.63787 45.6733L4.58066 47.9953H6.65193Z" fill="#717375"/>
<path d="M9.53235 50.6304L10.9671 43.2756L13.3081 48.5892L15.7354 43.2756L17.0299 50.6304H15.9727L15.3147 46.5048L13.2973 50.9436L11.3339 46.494L10.6003 50.6304H9.53235Z" fill="#717375"/>
<path d="M20.3634 44.7552V50.6196H19.3277V44.7552H17.7527V43.7832H21.9168V44.7552H20.3634Z" fill="#717375"/>
<path d="M25.8435 43.146H26.8468V50.6304H25.8435V50.1768C25.4552 50.5656 25.0021 50.7492 24.5166 50.7492C23.9233 50.7492 23.4378 50.5332 23.0495 50.1012C22.6611 49.6584 22.4669 49.1076 22.4669 48.4488C22.4669 47.8008 22.6611 47.2716 23.0495 46.8396C23.4378 46.4076 23.9125 46.1916 24.495 46.1916C25.0021 46.1916 25.4552 46.3968 25.8543 46.8072V43.146H25.8435ZM23.481 48.4596C23.481 48.87 23.5889 49.2048 23.8154 49.464C24.0419 49.7232 24.3332 49.8636 24.6784 49.8636C25.0452 49.8636 25.3473 49.734 25.5738 49.4856C25.8004 49.2264 25.919 48.8916 25.919 48.4812C25.919 48.0708 25.8004 47.7468 25.5738 47.4768C25.3473 47.2176 25.056 47.088 24.6892 47.088C24.344 47.088 24.0635 47.2176 23.8262 47.4768C23.5889 47.7468 23.481 48.0708 23.481 48.4596Z" fill="#717375"/>
<path d="M27.9471 44.5176C27.9471 44.3448 28.0119 44.1936 28.1413 44.064C28.2708 43.9344 28.4218 43.8696 28.5944 43.8696C28.7778 43.8696 28.9288 43.9344 29.0583 44.064C29.1878 44.1828 29.2525 44.3448 29.2525 44.5176C29.2525 44.6904 29.1878 44.8524 29.0583 44.982C28.9396 45.1116 28.7778 45.1764 28.6052 45.1764C28.4326 45.1764 28.2708 45.1116 28.1413 44.982C28.0119 44.8524 27.9471 44.7012 27.9471 44.5176ZM29.0907 46.3104V50.6196H28.0982V46.3104H29.0907Z" fill="#717375"/>
<path d="M30.3529 46.3105H31.3454V46.6993C31.5288 46.5049 31.6906 46.3752 31.8308 46.2996C31.9711 46.224 32.1437 46.1917 32.3487 46.1917C32.6076 46.1917 32.8881 46.278 33.1685 46.4508L32.7155 47.358C32.5321 47.2176 32.3379 47.1528 32.1653 47.1528C31.6259 47.1528 31.3562 47.5632 31.3562 48.384V50.6196H30.3637V46.3105H30.3529Z" fill="#717375"/>
<path d="M37.6023 48.7079H34.517C34.5494 49.0643 34.6572 49.3451 34.8622 49.5503C35.0672 49.7555 35.3261 49.8635 35.6497 49.8635C35.8979 49.8635 36.1028 49.8095 36.2646 49.6907C36.4265 49.5719 36.6099 49.3559 36.804 49.0319L37.6455 49.5071C37.516 49.7231 37.3758 49.9175 37.2355 50.0795C37.0953 50.2415 36.9335 50.3711 36.7717 50.4683C36.6099 50.5655 36.4265 50.6411 36.2323 50.6951C36.0381 50.7383 35.8331 50.7707 35.6066 50.7707C34.9593 50.7707 34.4523 50.5655 34.0531 50.1551C33.6648 49.7339 33.4706 49.1831 33.4706 48.5027C33.4706 47.8223 33.6648 47.2715 34.0316 46.8503C34.4091 46.4291 34.9162 46.2239 35.5419 46.2239C36.1783 46.2239 36.6746 46.4291 37.0414 46.8287C37.4082 47.2283 37.5916 47.7899 37.5916 48.5027L37.6023 48.7079ZM36.5775 47.8871C36.4372 47.3579 36.1028 47.0879 35.5742 47.0879C35.4556 47.0879 35.3369 47.1095 35.229 47.1419C35.1211 47.1743 35.024 47.2283 34.9377 47.3039C34.8514 47.3687 34.7759 47.4551 34.7112 47.5523C34.6465 47.6495 34.6033 47.7575 34.5709 47.8871H36.5775Z" fill="#717375"/>
<path d="M42.047 46.4941V47.8225C41.8205 47.5417 41.6155 47.3581 41.4321 47.2501C41.2595 47.1421 41.0437 47.0881 40.8064 47.0881C40.4288 47.0881 40.116 47.2177 39.8679 47.4877C39.6197 47.7577 39.5011 48.0817 39.5011 48.4705C39.5011 48.8701 39.6197 49.2049 39.8571 49.4641C40.0944 49.7233 40.4073 49.8529 40.7848 49.8529C41.0222 49.8529 41.2379 49.7989 41.4213 49.7017C41.5939 49.6045 41.8097 49.4101 42.047 49.1185V50.4361C41.6479 50.6413 41.2379 50.7493 40.8388 50.7493C40.1699 50.7493 39.6197 50.5333 39.1667 50.1013C38.7136 49.6693 38.4978 49.1293 38.4978 48.4813C38.4978 47.8333 38.7243 47.2933 39.1774 46.8505C39.6305 46.4077 40.1915 46.1809 40.8496 46.1809C41.2703 46.1917 41.6694 46.2997 42.047 46.4941Z" fill="#717375"/>
<path d="M44.032 47.2392V50.6196H43.0395V47.2392H42.6188V46.3104H43.0395V44.7336H44.032V46.3104H44.8087V47.2392H44.032Z" fill="#717375"/>
<path d="M52.3386 44.8092L51.508 45.306C51.3462 45.036 51.2059 44.8524 51.0657 44.7768C50.9146 44.6796 50.7313 44.6364 50.4939 44.6364C50.2026 44.6364 49.9653 44.7228 49.7819 44.8848C49.5985 45.0468 49.5014 45.2412 49.5014 45.4896C49.5014 45.8244 49.7496 46.0944 50.2458 46.2996L50.9254 46.5804C51.4756 46.8072 51.8856 47.0772 52.1445 47.4012C52.4034 47.7252 52.5328 48.1248 52.5328 48.5892C52.5328 49.2156 52.3279 49.7339 51.9071 50.1443C51.4864 50.5547 50.9578 50.7599 50.3321 50.7599C49.7388 50.7599 49.2533 50.5871 48.865 50.2307C48.4874 49.8743 48.25 49.3883 48.153 48.7511L49.1994 48.5244C49.2425 48.924 49.3288 49.2048 49.4475 49.356C49.6633 49.6476 49.9653 49.7988 50.3753 49.7988C50.6989 49.7988 50.9686 49.6908 51.1736 49.4748C51.3893 49.2588 51.4972 48.9887 51.4972 48.6539C51.4972 48.5243 51.4756 48.3947 51.4433 48.2867C51.4109 48.1787 51.3462 48.0708 51.2706 47.9844C51.1951 47.8872 51.0873 47.8007 50.9686 47.7251C50.8499 47.6387 50.6989 47.5632 50.5263 47.4984L49.8682 47.2284C48.9297 46.8288 48.4658 46.2564 48.4658 45.4896C48.4658 44.9712 48.66 44.55 49.0483 44.2044C49.4367 43.8588 49.933 43.686 50.5155 43.686C51.2814 43.6536 51.8963 44.0424 52.3386 44.8092Z" fill="#717375"/>
<path d="M53.3634 48.4381C53.3634 47.8116 53.5899 47.2825 54.0323 46.8505C54.4746 46.4185 55.0247 46.1917 55.6612 46.1917C56.3085 46.1917 56.8479 46.4077 57.301 46.8505C57.7433 47.2933 57.959 47.8333 57.959 48.4705C57.959 49.1185 57.7325 49.6585 57.2902 50.1013C56.8371 50.5333 56.2869 50.7493 55.6396 50.7493C54.9924 50.7493 54.453 50.5225 54.0215 50.0797C53.5792 49.6477 53.3634 49.0969 53.3634 48.4381ZM54.3775 48.4597C54.3775 48.8917 54.4961 49.2265 54.7227 49.4857C54.96 49.7341 55.2729 49.8637 55.6612 49.8637C56.0496 49.8637 56.3624 49.7341 56.5998 49.4857C56.8371 49.2373 56.945 48.9025 56.945 48.4813C56.945 48.0601 56.8263 47.7253 56.5998 47.4769C56.3624 47.2176 56.0496 47.0989 55.6612 47.0989C55.2836 47.0989 54.9708 47.2284 54.7335 47.4769C54.4961 47.7253 54.3775 48.0493 54.3775 48.4597Z" fill="#717375"/>
<path d="M60.0088 43.146V50.6304H59.0164V43.146H60.0088Z" fill="#717375"/>
<path d="M62.2634 46.3103V48.7835C62.2634 49.4963 62.5439 49.8527 63.1049 49.8527C63.6659 49.8527 63.9464 49.4963 63.9464 48.7835V46.3103H64.9388V48.8051C64.9388 49.1507 64.8957 49.4531 64.8094 49.7015C64.7231 49.9283 64.5828 50.1227 64.3779 50.3063C64.0434 50.5979 63.6119 50.7491 63.0941 50.7491C62.5763 50.7491 62.1556 50.5979 61.8104 50.3063C61.6054 50.1227 61.4544 49.9283 61.3681 49.7015C61.2818 49.4963 61.2494 49.2047 61.2494 48.8051V46.3103H62.2634Z" fill="#717375"/>
<path d="M67.2258 47.2392V50.6196H66.2333V47.2392H65.8126V46.3104H66.2333V44.7336H67.2258V46.3104H68.0026V47.2392H67.2258Z" fill="#717375"/>
<path d="M68.5312 44.5176C68.5312 44.3448 68.596 44.1936 68.7254 44.064C68.8549 43.9344 69.0059 43.8696 69.1785 43.8696C69.3619 43.8696 69.513 43.9344 69.6424 44.064C69.7719 44.1828 69.8366 44.3448 69.8366 44.5176C69.8366 44.6904 69.7719 44.8524 69.6424 44.982C69.5237 45.1116 69.3619 45.1764 69.1893 45.1764C69.0059 45.1764 68.8549 45.1116 68.7254 44.982C68.596 44.8524 68.5312 44.7012 68.5312 44.5176ZM69.6748 46.3104V50.6196H68.6823V46.3104H69.6748Z" fill="#717375"/>
<path d="M70.7319 48.4381C70.7319 47.8116 70.9585 47.2825 71.4008 46.8505C71.8431 46.4185 72.3933 46.1917 73.0298 46.1917C73.677 46.1917 74.2164 46.4077 74.6695 46.8505C75.1118 47.2933 75.3276 47.8333 75.3276 48.4705C75.3276 49.1185 75.101 49.6585 74.6587 50.1013C74.2056 50.5333 73.6554 50.7493 73.0082 50.7493C72.3609 50.7493 71.8215 50.5225 71.39 50.0797C70.9477 49.6477 70.7319 49.0969 70.7319 48.4381ZM71.7568 48.4597C71.7568 48.8917 71.8755 49.2265 72.102 49.4857C72.3393 49.7341 72.6522 49.8637 73.0405 49.8637C73.4289 49.8637 73.7418 49.7341 73.9791 49.4857C74.2164 49.2373 74.3243 48.9025 74.3243 48.4813C74.3243 48.0601 74.2056 47.7253 73.9791 47.4769C73.7418 47.2176 73.4289 47.0989 73.0405 47.0989C72.663 47.0989 72.3501 47.2284 72.1128 47.4769C71.8647 47.7253 71.7568 48.0493 71.7568 48.4597Z" fill="#717375"/>
<path d="M76.3848 46.3105H77.388V46.71C77.7332 46.3644 78.1324 46.1917 78.5639 46.1917C79.0602 46.1917 79.4593 46.3536 79.7398 46.6668C79.9771 46.9368 80.1066 47.3797 80.1066 47.9845V50.6305H79.1033V48.2221C79.1033 47.8009 79.0494 47.4985 78.9307 47.3365C78.812 47.1745 78.6071 47.088 78.305 47.088C77.9706 47.088 77.744 47.1961 77.6038 47.4121C77.4636 47.6281 77.3988 48.0061 77.3988 48.5461V50.6305H76.3955V46.3105H76.3848Z" fill="#717375"/>
<path d="M153.033 1.65234C150.487 1.65234 148.146 2.10594 145.923 3.03474V5.39994C148.103 4.35234 150.454 3.82314 153.033 3.82314C162.235 3.82314 169.722 11.3183 169.722 20.5307C169.722 25.7471 167.316 30.4127 163.486 33.5339L164.554 35.4455C169.031 31.9355 171.879 26.5679 171.879 20.5307C171.879 10.1195 163.432 1.65234 153.033 1.65234Z" fill="#A154A1"/>
<path d="M145.923 7.99194V10.4651L162.181 14.8823V37.0223L164.576 35.4239V13.0463L145.923 7.99194Z" fill="#54565A"/>
<path d="M141.792 11.2859V13.7591L158.049 18.1871V38.8475C158.869 38.6099 159.667 38.3291 160.444 37.9943V16.3403L141.792 11.2859Z" fill="#54565A"/>
<path d="M137.164 14.7095V24.9803L139.559 25.6283V17.8307L153.41 21.5891V39.5387C154.219 39.5171 155.018 39.4415 155.805 39.3227V19.7747L137.164 14.7095Z" fill="#54565A"/>
<path d="M148.092 23.6628L138.685 35.8668L134.683 30.4128L133.237 32.2812L138.663 39.636L150.972 23.6736L148.092 23.6628Z" fill="#A154A1"/>
<path d="M5.61631 19.6019V36.2771H11.3231V39.0311H2.68201V19.5911H5.61631V19.6019Z" fill="#54565A"/>
<path d="M24.7108 33.5771H15.9295C16.005 34.5815 16.3287 35.3807 16.9112 35.9855C17.4938 36.5687 18.2273 36.8711 19.1335 36.8711C19.8347 36.8711 20.4173 36.6983 20.8811 36.3635C21.3342 36.0287 21.8521 35.4023 22.4238 34.5059L24.8079 35.8451C24.4411 36.4715 24.0528 37.0115 23.6428 37.4651C23.2329 37.9187 22.7906 38.2859 22.3267 38.5775C21.8521 38.8691 21.3558 39.0743 20.8056 39.2147C20.2554 39.3443 19.6729 39.4199 19.0364 39.4199C17.2133 39.4199 15.7461 38.8367 14.635 37.6595C13.5238 36.4715 12.9736 34.9055 12.9736 32.9507C12.9736 31.0175 13.513 29.4407 14.581 28.2419C15.6598 27.0539 17.0946 26.4707 18.8854 26.4707C20.687 26.4707 22.111 27.0431 23.1574 28.1987C24.193 29.3435 24.7216 30.9203 24.7216 32.9399L24.7108 33.5771ZM21.8089 31.2551C21.4098 29.7431 20.4604 28.9871 18.9501 28.9871C18.6049 28.9871 18.2813 29.0411 17.9792 29.1491C17.6771 29.2571 17.4075 29.4083 17.1593 29.6027C16.9112 29.7971 16.6955 30.0347 16.5228 30.3155C16.3502 30.5963 16.21 30.9095 16.1237 31.2551H21.8089Z" fill="#54565A"/>
<path d="M36.8365 26.773H39.6737V39.031H36.8365V37.7458C35.6714 38.8366 34.42 39.3874 33.0715 39.3874C31.3778 39.3874 29.9754 38.7718 28.875 37.5514C27.7747 36.2986 27.2245 34.7434 27.2245 32.8642C27.2245 31.0282 27.7747 29.4946 28.875 28.2742C29.9754 27.0538 31.3455 26.4382 32.996 26.4382C34.42 26.4382 35.7038 27.0214 36.8365 28.1986V26.773ZM30.1156 32.8642C30.1156 34.0414 30.4285 34.9918 31.0542 35.737C31.7015 36.4822 32.5106 36.8602 33.4922 36.8602C34.5387 36.8602 35.3909 36.5038 36.0274 35.7802C36.6747 35.035 36.9983 34.0846 36.9983 32.9398C36.9983 31.795 36.6747 30.8446 36.0274 30.0994C35.3801 29.365 34.5387 29.0086 33.5138 29.0086C32.5429 29.0086 31.7338 29.3758 31.0758 30.121C30.4393 30.8446 30.1156 31.7734 30.1156 32.8642Z" fill="#54565A"/>
<path d="M50.3644 28.8682L48.0235 30.1102C47.6567 29.3542 47.1928 28.9762 46.6534 28.9762C46.3945 28.9762 46.168 29.0626 45.9846 29.2354C45.8012 29.4082 45.7041 29.6242 45.7041 29.8942C45.7041 30.3694 46.2543 30.8338 47.3438 31.2874C48.8434 31.9354 49.8574 32.5294 50.3752 33.0694C50.893 33.6202 51.152 34.3438 51.152 35.2726C51.152 36.4606 50.7204 37.4434 49.8466 38.2426C49.0052 38.9986 47.9803 39.3766 46.7829 39.3766C44.7332 39.3766 43.2768 38.3722 42.4246 36.3634L44.841 35.2402C45.1755 35.8234 45.4344 36.2014 45.607 36.3634C45.9522 36.6874 46.3621 36.8386 46.8368 36.8386C47.7969 36.8386 48.2716 36.4066 48.2716 35.5318C48.2716 35.0242 47.9048 34.5598 47.1604 34.117C46.88 33.9766 46.5887 33.8362 46.3082 33.6958C46.0277 33.5662 45.7364 33.4258 45.4452 33.2854C44.6253 32.8858 44.0427 32.4754 43.7083 32.0758C43.2768 31.5682 43.0718 30.9094 43.0718 30.0994C43.0718 29.0302 43.4386 28.1554 44.1614 27.4534C44.9058 26.7622 45.812 26.4058 46.88 26.4058C48.4334 26.4382 49.5985 27.2482 50.3644 28.8682Z" fill="#54565A"/>
<path d="M64.8417 33.5771H56.0604C56.1359 34.5815 56.4595 35.3807 57.0421 35.9855C57.6246 36.5687 58.3582 36.8711 59.2644 36.8711C59.9656 36.8711 60.5481 36.6983 61.012 36.3635C61.4651 36.0287 61.9829 35.4023 62.5547 34.5059L64.9388 35.8451C64.572 36.4715 64.1836 37.0115 63.7737 37.4651C63.3638 37.9187 62.9215 38.2859 62.4576 38.5775C61.9829 38.8691 61.4867 39.0743 60.9365 39.2147C60.3863 39.3443 59.8038 39.4199 59.1673 39.4199C57.3441 39.4199 55.877 38.8367 54.7658 37.6595C53.6547 36.4715 53.1045 34.9055 53.1045 32.9507C53.1045 31.0175 53.6439 29.4407 54.7119 28.2419C55.7907 27.0539 57.2255 26.4707 59.0162 26.4707C60.8178 26.4707 62.2418 27.0431 63.2882 28.1987C64.3239 29.3435 64.8525 30.9203 64.8525 32.9399L64.8417 33.5771ZM61.9398 31.2551C61.5406 29.7431 60.5913 28.9871 59.081 28.9871C58.7358 28.9871 58.4121 29.0411 58.1101 29.1491C57.808 29.2571 57.5383 29.4083 57.2902 29.6027C57.0421 29.7971 56.8263 30.0347 56.6537 30.3155C56.4811 30.5963 56.3409 30.9095 56.2546 31.2551H61.9398Z" fill="#54565A"/>
<path d="M72.5443 28.879L67.2043 19.6018H70.5378L74.2488 26.1898L78.1432 19.6018H81.4982L75.8993 28.879L81.7679 39.0418H78.4884L74.1841 31.6006L69.761 39.0418H66.4384L72.5443 28.879Z" fill="#A154A1"/>
<path d="M86.6764 45.7054H83.85V26.773H86.6764V28.1122C87.7875 26.9998 89.0605 26.4382 90.4737 26.4382C92.1566 26.4382 93.5483 27.0538 94.6379 28.2958C95.749 29.527 96.2992 31.0822 96.2992 32.9614C96.2992 34.7974 95.749 36.331 94.6486 37.5514C93.5591 38.7718 92.189 39.3766 90.5277 39.3766C89.0929 39.3766 87.8091 38.8042 86.6764 37.6486V45.7054ZM93.3973 32.983C93.3973 31.8058 93.0736 30.8554 92.4371 30.1102C91.7899 29.365 90.9808 28.987 89.9991 28.987C88.9634 28.987 88.122 29.3434 87.4747 30.067C86.8274 30.7906 86.5038 31.741 86.5038 32.9074C86.5038 34.0522 86.8274 35.0026 87.4747 35.7478C88.1112 36.4822 88.9526 36.8386 89.9883 36.8386C90.97 36.8386 91.7791 36.4714 92.4156 35.7262C93.0736 35.0134 93.3973 34.0846 93.3973 32.983Z" fill="#A154A1"/>
<path d="M110.442 33.5771H101.661C101.736 34.5815 102.06 35.3807 102.643 35.9855C103.225 36.5687 103.959 36.8711 104.865 36.8711C105.566 36.8711 106.149 36.6983 106.612 36.3635C107.066 36.0287 107.583 35.4023 108.155 34.5059L110.539 35.8451C110.172 36.4715 109.784 37.0115 109.374 37.4651C108.964 37.9187 108.522 38.2859 108.058 38.5775C107.583 38.8691 107.076 39.0743 106.537 39.2147C105.987 39.3443 105.404 39.4199 104.768 39.4199C102.945 39.4199 101.477 38.8367 100.366 37.6595C99.2551 36.4715 98.705 34.9055 98.705 32.9507C98.705 31.0175 99.2443 29.4407 100.312 28.2419C101.391 27.0539 102.826 26.4707 104.617 26.4707C106.418 26.4707 107.842 27.0431 108.889 28.1987C109.924 29.3435 110.453 30.9203 110.453 32.9399L110.442 33.5771ZM107.529 31.2551C107.13 29.7431 106.181 28.9871 104.671 28.9871C104.325 28.9871 104.002 29.0411 103.7 29.1491C103.398 29.2571 103.128 29.4083 102.88 29.6027C102.632 29.7971 102.416 30.0347 102.243 30.3155C102.071 30.5963 101.931 30.9095 101.844 31.2551H107.529Z" fill="#A154A1"/>
<path d="M113.527 26.7731H116.354V27.8639C116.872 27.3131 117.336 26.9459 117.735 26.7407C118.145 26.5355 118.63 26.4275 119.191 26.4275C119.935 26.4275 120.712 26.6759 121.532 27.1619L120.238 29.7539C119.698 29.3651 119.18 29.1707 118.663 29.1707C117.12 29.1707 116.354 30.3371 116.354 32.6699V39.0311H113.527V26.7731Z" fill="#A154A1"/>
<path d="M127.012 29.4191V39.0311H124.186V29.4191H122.978V26.7731H124.186V22.2803H127.012V26.7731H129.213V29.4191H127.012Z" fill="#A154A1"/>
</svg>
